<?xml version="1.0" encoding="iso-8859-1"?>
<!-- Generator: Adobe Illustrator 19.0.0, SVG Export Plug-In . SVG Version: 6.00 Build 0)  -->
<svg version="1.1" id="Capa_1" xmlns="http://www.w3.org/2000/svg" xmlns:xlink="http://www.w3.org/1999/xlink" x="0px" y="0px"
	 viewBox="0 0 480 480" style="enable-background:new 0 0 480 480;" xml:space="preserve">
<path id="XMLID_744_" d="M388.335,301.916c36.367-16.596,57.101-56.173,50.422-96.246L420.872,98.356
	c-0.804-4.822-4.975-8.356-9.864-8.356H291.009c-4.888,0-9.06,3.534-9.864,8.356L263.26,205.67
	c-6.679,40.073,14.056,79.65,50.422,96.246c8.714,3.977,17.871,6.5,27.327,7.54V460h-30c-5.523,0-10,4.477-10,10s4.477,10,10,10
	h79.999c5.523,0,10-4.477,10-10s-4.477-10-10-10h-30V309.456C370.464,308.416,379.621,305.893,388.335,301.916z M282.987,208.958
	L299.48,110h103.057l16.493,98.958c0.058,0.348,0.113,0.693,0.166,1.042H282.822C282.875,209.652,282.929,209.307,282.987,208.958z
	 M351.009,290c-10.128,0-19.893-2.113-29.024-6.279c-21.737-9.919-36.251-30.507-39.348-53.721h136.745
	c-3.097,23.213-17.611,43.801-39.348,53.721C370.902,287.887,361.137,290,351.009,290z M169.999,132.906V10c0-5.523-4.477-10-10-10
	H99.999c-5.523,0-10,4.477-10,10v122.906C60.573,141.59,40,168.577,40,200v270c0,5.523,4.477,10,10,10h159.998
	c5.523,0,10-4.477,10-10V200C219.998,168.577,199.426,141.59,169.999,132.906z M109.999,20h40v110h-40V20z M199.998,460H60V230
	h139.999V460z M199.998,210H60v-10c0-24.51,17.518-45.241,41.655-49.293c0.833-0.14,1.627-0.38,2.372-0.707h51.946
	c0.744,0.327,1.539,0.567,2.371,0.707c24.137,4.052,41.655,24.783,41.655,49.293V210z"/>
<g>
</g>
<g>
</g>
<g>
</g>
<g>
</g>
<g>
</g>
<g>
</g>
<g>
</g>
<g>
</g>
<g>
</g>
<g>
</g>
<g>
</g>
<g>
</g>
<g>
</g>
<g>
</g>
<g>
</g>
</svg>
